<svg xmlns="http://www.w3.org/2000/svg" version="1.1" xmlns:xlink="http://www.w3.org/1999/xlink" xmlns:svgjs="http://svgjs.dev/svgjs" width="2000" height="277" viewBox="0 0 2000 277"><g transform="matrix(1,0,0,1,-1.2121212121212466,1.1024163035070842)"><svg viewBox="0 0 396 55" data-background-color="#ffffff" preserveAspectRatio="xMidYMid meet" height="277" width="2000" xmlns="http://www.w3.org/2000/svg" xmlns:xlink="http://www.w3.org/1999/xlink"><g id="tight-bounds" transform="matrix(1,0,0,1,0.2400000000000091,-0.2188913238010457)"><svg viewBox="0 0 395.52 55.43778264760209" height="55.43778264760209" width="395.52"><g><svg viewBox="0 0 395.52 55.43778264760209" height="55.43778264760209" width="395.52"><g><svg viewBox="0 0 395.52 55.43778264760209" height="55.43778264760209" width="395.52"><g><svg viewBox="0 0 477.73151048463103 66.96090119882084" height="55.43778264760209" width="395.52"><g transform="matrix(1,0,0,1,82.21151048463103,1.1790028431051454)"><svg viewBox="0 0 395.52 64.60289551261054" height="64.60289551261054" width="395.52"><g id="textblocktransform"><svg viewBox="0 0 395.52 64.60289551261054" height="64.60289551261054" width="395.52" id="textblock"><g><svg viewBox="0 0 395.52 64.60289551261054" height="64.60289551261054" width="395.52"><g transform="matrix(1,0,0,1,0,0)"><svg width="395.52" viewBox="3.17 -36.04 223.59 36.53" height="64.60289551261054" data-palette-color="#433d3d"><path d="M20.53-35.55L25.02-35.55 25.02-10.28Q24.98-5.22 22.09-2.37 19.21 0.49 14.06 0.49L14.06 0.49Q8.79 0.49 6.01-2.31 3.22-5.1 3.17-10.28L3.17-10.28 3.17-35.55 7.62-35.55 7.62-10.45Q7.62-6.86 9.14-5.09 10.67-3.32 14.06-3.32L14.06-3.32Q17.48-3.32 19.01-5.09 20.53-6.86 20.53-10.45L20.53-10.45 20.53-35.55ZM52.68-35.55L52.68-31.69 43.33-31.69 43.33 0 38.86 0 38.86-31.69 29.54-31.69 29.54-35.55 52.68-35.55ZM80.37-21.12L80.37-14.65Q80.37-7.37 77.27-3.44 74.16 0.49 68.45 0.49L68.45 0.49Q62.96 0.49 59.77-3.33 56.59-7.15 56.46-14.14L56.46-14.14 56.46-20.83Q56.46-27.95 59.61-31.99 62.76-36.04 68.4-36.04L68.4-36.04Q74.02-36.04 77.16-32.17 80.29-28.3 80.37-21.12L80.37-21.12ZM75.9-14.21L75.9-20.87Q75.9-26.51 74.06-29.26 72.21-32.01 68.4-32.01L68.4-32.01Q64.72-32.01 62.82-29.22 60.93-26.44 60.91-21.02L60.91-21.02 60.91-14.65Q60.91-9.2 62.8-6.35 64.69-3.49 68.45-3.49 72.21-3.49 74.02-6.13 75.83-8.76 75.9-14.21L75.9-14.21ZM97.75 0L87.27 0 87.27-35.55 97.4-35.55Q102.26-35.55 104.72-33.18 107.17-30.81 107.17-26.07L107.17-26.07Q107.17-23.58 105.93-21.68 104.68-19.78 102.56-18.73L102.56-18.73Q105-17.99 106.43-15.72 107.85-13.45 107.85-10.25L107.85-10.25Q107.85-5.47 105.23-2.73 102.6 0 97.75 0L97.75 0ZM97.94-16.63L91.74-16.63 91.74-3.83 97.84-3.83Q100.38-3.83 101.87-5.51 103.36-7.18 103.36-10.21L103.36-10.21Q103.36-16.63 97.94-16.63L97.94-16.63ZM91.74-31.69L91.74-20.39 97.48-20.39Q99.8-20.39 101.23-21.95 102.65-23.51 102.65-26.1L102.65-26.1Q102.65-29.03 101.36-30.36 100.07-31.69 97.4-31.69L97.4-31.69 91.74-31.69ZM131.58-20.26L131.58-16.43 119.01-16.43 119.01-3.83 133.66-3.83 133.66 0 114.54 0 114.54-35.55 133.41-35.55 133.41-31.69 119.01-31.69 119.01-20.26 131.58-20.26ZM160.63-35.55L160.63-31.69 151.28-31.69 151.28 0 146.81 0 146.81-31.69 137.49-31.69 137.49-35.55 160.63-35.55ZM170.54-35.55L170.54 0 166.07 0 166.07-35.55 170.54-35.55ZM196.15-11.28L200.67-11.28Q200.37-5.57 197.46-2.54 194.54 0.49 189.22 0.49L189.22 0.49Q183.87 0.49 180.72-3.58 177.57-7.64 177.57-14.6L177.57-14.6 177.57-21.04Q177.57-27.98 180.81-32.01 184.04-36.04 189.63-36.04L189.63-36.04Q194.78-36.04 197.6-32.95 200.42-29.86 200.67-24.12L200.67-24.12 196.15-24.12Q195.86-28.47 194.32-30.32 192.78-32.18 189.63-32.18L189.63-32.18Q185.99-32.18 184.04-29.33 182.09-26.49 182.09-21L182.09-21 182.09-14.48Q182.09-9.08 183.91-6.2 185.72-3.32 189.22-3.32 192.71-3.32 194.25-5.05 195.78-6.79 196.15-11.28L196.15-11.28ZM222.25-8.98L222.25-8.98Q222.25-11.65 220.81-13.06 219.36-14.48 215.61-15.82 211.85-17.16 209.86-18.64 207.87-20.12 206.88-22.01 205.89-23.9 205.89-26.34L205.89-26.34Q205.89-30.57 208.71-33.3 211.53-36.04 216.09-36.04L216.09-36.04Q219.22-36.04 221.66-34.63 224.1-33.23 225.42-30.74 226.74-28.25 226.74-25.27L226.74-25.27 222.25-25.27Q222.25-28.56 220.66-30.37 219.07-32.18 216.09-32.18L216.09-32.18Q213.38-32.18 211.89-30.66 210.4-29.15 210.4-26.42L210.4-26.42Q210.4-24.17 212.02-22.66 213.63-21.14 217-19.95L217-19.95Q222.25-18.21 224.5-15.67 226.76-13.13 226.76-9.03L226.76-9.03Q226.76-4.71 223.95-2.11 221.15 0.49 216.31 0.49L216.31 0.49Q213.21 0.49 210.59-0.87 207.96-2.22 206.46-4.68 204.96-7.13 204.96-10.3L204.96-10.3 209.45-10.3Q209.45-7.01 211.3-5.18 213.14-3.34 216.31-3.34L216.31-3.34Q219.27-3.34 220.76-4.86 222.25-6.37 222.25-8.98Z" opacity="1" transform="matrix(1,0,0,1,0,0)" fill="#ffffff" class="wordmark-text-0" data-fill-palette-color="primary" id="text-0"></path></svg></g></svg></g></svg></g></svg></g><g><svg viewBox="0 0 66.96031732359599 66.96090119882084" height="66.96090119882084" width="66.96031732359599"><g><svg xmlns="http://www.w3.org/2000/svg" xmlns:xlink="http://www.w3.org/1999/xlink" version="1.1" x="0" y="0" viewBox="5 4.9992152251910404 90 90.00078477480896" enable-background="new 0 0 100 100" xml:space="preserve" height="66.96090119882084" width="66.96031732359599" class="icon-icon-0" data-fill-palette-color="accent" id="icon-0"></svg></g></svg></g></svg></g></svg></g></svg></g><defs></defs><mask id="f8d197f2-2b2c-4532-a39b-a6d70196132e"><g id="SvgjsG1038"><svg viewBox="0 0 395.52 55.43778264760209" height="55.43778264760209" width="395.52"><g><svg viewBox="0 0 395.52 55.43778264760209" height="55.43778264760209" width="395.52"><g><svg viewBox="0 0 395.52 55.43778264760209" height="55.43778264760209" width="395.52"><g><svg viewBox="0 0 477.73151048463103 66.96090119882084" height="55.43778264760209" width="395.52"><g transform="matrix(1,0,0,1,82.21151048463103,1.1790028431051454)"><svg viewBox="0 0 395.52 64.60289551261054" height="64.60289551261054" width="395.52"><g id="SvgjsG1037"><svg viewBox="0 0 395.52 64.60289551261054" height="64.60289551261054" width="395.52" id="SvgjsSvg1036"><g><svg viewBox="0 0 395.52 64.60289551261054" height="64.60289551261054" width="395.52"><g transform="matrix(1,0,0,1,0,0)"><svg width="395.52" viewBox="3.17 -36.04 223.59 36.53" height="64.60289551261054" data-palette-color="#433d3d"></svg></g></svg></g></svg></g></svg></g><g><svg viewBox="0 0 66.96031732359599 66.96090119882084" height="66.96090119882084" width="66.96031732359599"><g><svg xmlns="http://www.w3.org/2000/svg" xmlns:xlink="http://www.w3.org/1999/xlink" version="1.1" x="0" y="0" viewBox="5 4.9992152251910404 90 90.00078477480896" enable-background="new 0 0 100 100" xml:space="preserve" height="66.96090119882084" width="66.96031732359599" class="icon-icon-0" data-fill-palette-color="accent" id="SvgjsSvg1034"><g fill="white"><g fill="white"><path d="M50 86.819c9.709 0 17.618-4.473 22.418-10.855 1.309-1.8 3.873-2.182 5.727-0.818 1.8 1.309 2.182 3.873 0.818 5.727C72.691 89.273 62.273 95 50 95c-12.327 0-22.691-5.727-28.909-14.127-1.364-1.855-0.982-4.418 0.818-5.727 1.8-1.364 4.364-0.982 5.727 0.818C32.436 82.4 40.236 86.819 50 86.819z" fill="white"></path><path d="M71.436 60.637h19.473c2.291 0 4.091 1.8 4.091 4.091 0 2.236-1.8 4.091-4.091 4.091H70.891c-3.764 0-6.818-2.836-7.473-6.327v-0.055L62.764 58.4l-1.255 6.655-1.8 9.818c-0.382 1.855-1.364 3.545-2.782 4.691-1.364 1.091-3.055 1.636-4.691 1.636s-3.327-0.545-4.691-1.636c-1.418-1.145-2.4-2.836-2.782-4.691l-1.8-9.818-2.4-12.982-1.855 10.364v0.055c-0.655 3.545-3.655 6.327-7.473 6.327H9.091C6.855 68.819 5 66.964 5 64.728c0-2.291 1.855-4.091 4.091-4.091h21.6l2.4-13.309v-0.055c0.327-1.855 1.364-3.6 2.727-4.691 1.418-1.091 3.109-1.636 4.745-1.636s3.327 0.545 4.691 1.636c1.418 1.091 2.4 2.836 2.727 4.691l3 16.255 1.255 6.6 1.2-6.545 1.855-10.036c0.327-1.909 1.364-3.6 2.727-4.691 1.418-1.145 3.055-1.636 4.745-1.636 1.636 0 3.327 0.491 4.691 1.636 1.418 1.091 2.4 2.782 2.727 4.691V53.6L71.436 60.637z" fill="white"></path><path d="M74.436 50.6l-18-33.545c-1.473-2.673-3.873-3.818-6.436-3.873-2.564 0.055-4.964 1.2-6.382 3.873l-18 33.545c-0.382 0.709-0.709 1.364-0.982 2.018v0.055c-0.818 2.073-3.218 3.109-5.291 2.236-2.127-0.818-3.109-3.218-2.291-5.291 0.382-0.982 0.818-1.909 1.364-2.891l18-33.545C39.255 7.782 44.709 4.946 50 5c5.291-0.055 10.745 2.782 13.636 8.182l18 33.545c0.491 0.982 0.927 1.909 1.364 2.891 0.818 2.073-0.218 4.473-2.291 5.291-2.127 0.873-4.473-0.164-5.345-2.291C75.091 51.964 74.764 51.309 74.436 50.6z" fill="white"></path></g></g></svg></g></svg></g></svg></g></svg></g></svg></g><defs><mask></mask></defs></svg></g></mask><linearGradient x1="0" x2="1" y1="0.5" y2="0.5" id="6e4b318f-4635-46b9-8858-22dc0755d209"><stop stop-color="#ffa62e" offset="0"></stop><stop stop-color="#f71b3d" offset="1"></stop></linearGradient><rect width="395.52" height="55.43778264760209" fill="#ffffff" mask="url(#f8d197f2-2b2c-4532-a39b-a6d70196132e)" data-fill-palette-color="accent"></rect></svg><rect width="395.52" height="55.43778264760209" fill="none" stroke="none" visibility="hidden"></rect></g></svg></g></svg>